<?xml version="1.0" encoding="UTF-8"?>
<svg version="1.1" viewBox="0 0 26 26" xmlns="http://www.w3.org/2000/svg">
<title>Group 5</title>
<desc>Created with Sketch.</desc>
<g fill="none" fill-rule="evenodd">
<g transform="translate(-237 -711)">
<g transform="translate(238 712)">
<circle cx="12" cy="12" r="12" stroke="#000" stroke-width="2"/>
<path d="m6.7059 1.7647l10.684 20.7" stroke="#000" stroke-linecap="square" stroke-width="2"/>
<path d="m19.951 7.0363h-0.68282l-0.47409 0.47289h-11.527l-0.27797-0.42606h-0.4985l-0.38043 0.88374h-0.85812v1.3294c0 0.057435-0.29478 0.30018-0.33841 0.36863-0.093657 0.14689-0.20392 0.44527-0.027217 0.55774 0.11787 0.072444 0.36122 0.044627 0.4971 0.08105 0.10707 0.027817 0.20392 0.064039 0.29738 0.11967 0 0 0.63639 0.25376 0.63639 1.1571 0 0 0 0.94878-0.6482 2.1291-0.3234 0.59016-1.9186 2.6824-1.9186 4.3 0 0.67101 0.74005 0.57855 0.74005 0.57855h3.7677s0.51071-0.1629 0.51071-0.87874l1.4683-4.0591s0.24755-0.8247 0.89134-0.38063c0.36262 0.25095 2.1451 0.12187 2.7011 0.12187 0.56214 0 1.1273-0.47329 1.23-0.97119l0.13868-1.1401s0.093857-0.34621 1.2027-0.34621h4.0713s0.64179-0.024215 0.64179-0.76447v-1.3294l-0.68862-1.331-0.47449-0.47289zm-6.2332 5.7485h-1.8507s-0.88994 0.044627-0.88994-0.92817c0-0.79168 0.59837-0.9834 0.92477-0.9834-0.14529 1.4279 0.99701 1.6154 0.70703 0.92036-0.29038-0.69663 0.45308-1.017 0.45308-1.017l0.79469 0.0078048s0.67081 0.03262 0.67081 0.99121c-2.001e-4 0.66-0.3234 1.0092-0.80969 1.0092z" fill="#000" fill-rule="nonzero"/>
</g>
</g>
</g>
</svg>
